<svg xmlns="http://www.w3.org/2000/svg" width="32" height="32" viewBox="0 0 32 32"><defs><style>.a{fill:#fff;}</style></defs><path class="a" d="M22.467,0H9.533A9.544,9.544,0,0,0,0,9.533V22.467A9.544,9.544,0,0,0,9.533,32H22.467A9.544,9.544,0,0,0,32,22.467V9.533A9.544,9.544,0,0,0,22.467,0Zm6.314,22.467a6.314,6.314,0,0,1-6.314,6.314H9.533a6.314,6.314,0,0,1-6.314-6.314V9.533A6.314,6.314,0,0,1,9.533,3.219H22.467a6.314,6.314,0,0,1,6.314,6.314V22.467Z"/><path class="a" d="M141.276,133a8.276,8.276,0,1,0,8.276,8.276A8.286,8.286,0,0,0,141.276,133Zm0,13.333a5.057,5.057,0,1,1,5.057-5.057A5.057,5.057,0,0,1,141.276,146.333Z" transform="translate(-125.276 -125.276)"/><circle class="a" cx="1.983" cy="1.983" r="1.983" transform="translate(22.309 5.803)"/></svg>