<svg xmlns="http://www.w3.org/2000/svg" width="32" height="32.261" viewBox="0 0 32 32.261"><defs><style>.a{fill:#fff;}</style></defs><g transform="translate(-1.69 0)"><path class="a" d="M16.908.019A16.006,16.006,0,0,0,3.432,23.266l-1.7,8.246a.623.623,0,0,0,.753.732l8.08-1.914A16,16,0,1,0,16.908.019Zm9.641,24.84a12.536,12.536,0,0,1-14.434,2.363l-1.125-.561L6.035,27.835l1.043-5.062-.554-1.086A12.539,12.539,0,0,1,8.831,7.141,12.528,12.528,0,1,1,26.549,24.859Z" transform="translate(0 0)"/><path class="a" d="M120.407,118.6l-3.1-.89a1.155,1.155,0,0,0-1.143.3l-.758.772a1.129,1.129,0,0,1-1.227.259,16.545,16.545,0,0,1-5.338-4.707,1.129,1.129,0,0,1,.089-1.251l.662-.856a1.155,1.155,0,0,0,.143-1.174l-1.3-2.949a1.156,1.156,0,0,0-1.8-.413,5.213,5.213,0,0,0-2.016,3.075c-.22,2.171.711,4.909,4.233,8.2,4.068,3.8,7.326,4.3,9.447,3.785a5.212,5.212,0,0,0,2.771-2.416A1.156,1.156,0,0,0,120.407,118.6Z" transform="translate(-94.952 -99.129)"/></g></svg>